<?xml version="1.0" encoding="UTF-8"?>
<svg width="64px" height="64px" viewBox="0 0 64 64" version="1.1" xmlns="http://www.w3.org/2000/svg" xmlns:xlink="http://www.w3.org/1999/xlink">
    <!-- Generator: Sketch 63.1 (92452) - https://sketch.com -->
    <title>dashboard-icon</title>
    <desc>Created with Sketch.</desc>
    <g id="dashboard-icon" stroke="none" stroke-width="1" fill="none" fill-rule="evenodd">
        <path d="M55.9510042,30.6577011 C54.9264449,14.3078393 36.6754148,0.156261598 29.1576232,0.00108860774 C21.6368153,-0.158063177 7.58356234,17.1596404 7.01447447,34.7538702 C6.47957208,51.2519421 20.9098709,62.5626604 27.1195647,64 C27.2925031,56.236377 27.927951,27.6626635 28.0345293,24.3284336 C28.2577405,17.5167372 28.6036172,6.92518594 29.7659239,6.57206792 C30.4345519,6.36914939 31.3454946,12.3263996 31.2348945,15.8466382 C31.211769,16.5190545 31.2037254,18.6944604 31.2037254,21.7800156 C32.4605449,20.5326635 33.7766863,19.2345818 34.5740126,18.4696585 C36.761884,16.3708444 37.7311432,16.619519 36.6794366,18.4925366 C36.0349396,19.6424082 33.2538494,23.4739874 31.211769,26.248202 C31.2198127,31.8473607 31.24696,38.8918166 31.2741073,45.4538436 C34.1617758,42.1594017 37.6959522,38.2034851 39.5500124,36.447842 C43.4461528,32.7644729 43.8583896,33.2299918 42.0204168,37.0963855 C40.8933011,39.4627736 35.3713389,45.7840836 31.2942164,50.7695132 C31.3173419,56.5944685 31.3414728,61.4903753 31.3454946,63.8289118 C42.2758025,61.4824177 56.9564598,46.7091533 55.9510042,30.6577011" id="Fill-25" fill="#DD7139"></path>
    </g>
</svg>