<svg width="134" height="151" viewBox="0 0 134 151" fill="none" xmlns="http://www.w3.org/2000/svg">
<path d="M2 29V10C2 5.58172 5.58172 2 10 2H124C128.418 2 132 5.58172 132 10V11.6171V29C132 33.4183 128.418 37 124 37H10C5.58172 37 2 33.4183 2 29Z" stroke="#D7E1EA" stroke-width="4" stroke-linecap="round" stroke-dasharray="9 9"/>
<path d="M2 85V66C2 61.5817 5.58172 58 10 58H124C128.418 58 132 61.5817 132 66V67.6171V85C132 89.4183 128.418 93 124 93H10C5.58172 93 2 89.4183 2 85Z" stroke="#D7E1EA" stroke-width="4" stroke-linecap="round" stroke-dasharray="9 9"/>
<path d="M2 141V122C2 117.582 5.58172 114 10 114H124C128.418 114 132 117.582 132 122V123.617V141C132 145.418 128.418 149 124 149H10C5.58172 149 2 145.418 2 141Z" stroke="#D7E1EA" stroke-width="4" stroke-linecap="round" stroke-dasharray="9 9"/>
</svg>
