<svg width="30" height="30" xmlns="http://www.w3.org/2000/svg">

 <g>
  <title>background</title>
  <rect fill="none" id="canvas_background" height="32" width="32" y="-1" x="-1"/>
 </g>
 <g>
  <title>Layer 1</title>
  <path id="svg_2" d="m5.26176,26.40944c-3.22028,-2.75122 -5.26176,-6.84192 -5.26176,-11.40944c0,-4.14214 1.67893,-7.89214 4.3934,-10.6066c2.71446,-2.71447 6.46446,-4.3934 10.6066,-4.3934c8.28427,0 15,6.71573 15,15c0,8.28427 -6.71573,15 -15,15c-3.71675,0 -7.11778,-1.3518 -9.73824,-3.59056zm-1.22365,-10.48719c1.66273,-1.46532 2.83384,-3.42225 5.96189,-3.42225c5,0 5,5 10,5c3.12805,0 4.29916,-1.95693 5.96189,-3.42225c-0.46846,-5.64358 -5.19735,-10.07775 -10.96189,-10.07775c-6.07513,0 -11,4.92487 -11,11c0,0.31059 0.01287,0.61818 0.03811,0.92225z" fill="#405263"/>
 </g>
</svg>