<?xml version="1.0" encoding="UTF-8"?>
<svg width="64px" height="64px" viewBox="0 0 64 64" version="1.1" xmlns="http://www.w3.org/2000/svg" xmlns:xlink="http://www.w3.org/1999/xlink">
    <!-- Generator: Sketch 61.2 (89653) - https://sketch.com -->
    <title>cog-icon</title>
    <desc>Created with Sketch.</desc>
    <g id="cog-icon" stroke="none" stroke-width="1" fill="none" fill-rule="evenodd">
        <g id="cog-3" fill="#FFFFFF" fill-rule="nonzero">
            <path d="M29.2092314,64 C27.8545154,64 26.718474,62.9978344 26.5531346,61.6651674 L25.9184448,56.5930368 C23.4623553,55.9826753 21.1236034,55.0124938 18.9581911,53.7011494 L14.8967098,56.8462435 C14.4326929,57.2060636 13.8540051,57.4059637 13.2646503,57.4059637 C12.5526243,57.4059637 11.8832666,57.1287689 11.3792483,56.6276862 L7.37910246,52.6296852 C6.43240129,51.6808263 6.33639779,50.1695819 7.16042783,49.1114443 L10.3072092,45.0521406 C8.99516136,42.8878894 8.02445932,40.5530568 7.41377039,38.0956189 L2.33625201,37.4612694 C0.994869787,37.2933533 -0.0105001876,36.1472597 8.27766753e-05,34.7959354 L8.27766753e-05,29.1934033 C-0.0105001876,27.850075 0.994869787,26.7066467 2.33625201,26.5387306 L7.41110363,25.9043811 C8.02179255,23.4496085 8.9924946,21.1147759 10.3045424,18.9505247 L7.14442724,14.8912211 C6.32306398,13.8330835 6.41640071,12.3191737 7.36310188,11.3729802 L11.3632477,7.37497918 C11.867266,6.87123105 12.5366238,6.59670165 13.2486497,6.59670165 C13.8380045,6.59670165 14.419359,6.7966017 14.883376,7.15642179 L18.9315235,10.2988506 C21.094269,8.98750625 23.4276874,8.01732467 25.8811101,7.40696319 L26.5157999,2.33483258 C26.6811393,1.00483092 27.8198474,0 29.1612297,0 L34.8094355,0 C36.1641515,0.021322672 37.3028597,1.02615359 37.4655323,2.33483258 L38.1002221,7.40696319 C40.5563116,8.01732467 42.8923968,8.98750625 45.0551422,10.2961852 L49.0952895,7.12710312 C49.5646399,6.76461769 50.1459945,6.56471764 50.7353493,6.56471764 C51.4473752,6.56471764 52.1167329,6.84191238 52.6207513,7.34299517 L56.6208971,11.3409962 C57.5675983,12.2898551 57.6636018,13.8010995 56.8422385,14.859237 L53.6954571,18.9158754 C55.007505,21.0801266 55.978207,23.4176245 56.5888959,25.8723971 L61.6637476,26.5067466 C63.0051298,26.6746627 64.0104998,27.8207563 63.999917,29.1720806 L63.999917,34.7959354 C64.0104998,36.1392637 63.0077965,37.282692 61.6664143,37.450608 L56.644898,38.0902882 C56.0368758,40.5450608 55.0661738,42.8825587 53.7514592,45.0494753 L56.8982405,49.1087789 C57.7196038,50.1642512 57.6262671,51.6754956 56.6795659,52.6243545 L52.6794201,56.6223555 C52.1780685,57.1234383 51.5087108,57.400633 50.7940181,57.400633 L50.7940181,57.400633 C50.2046633,57.400633 49.6233087,57.2033983 49.1592918,56.8409129 L45.1111443,53.6958188 C42.945732,55.0071631 40.6096469,55.9773447 38.1508906,56.5877061 L37.5162008,61.6598367 C37.3508615,62.9898384 36.2121533,63.9946693 34.8707711,63.9946693 L29.2092314,63.9946693 L29.2092314,64 Z M18.880855,50.7426287 C19.1421978,50.7426287 19.3955404,50.8199234 19.614215,50.9638514 C21.9903016,52.5284025 24.6117305,53.6185241 27.3984987,54.1995669 C27.9558524,54.3141762 28.3772011,54.7726137 28.4492037,55.3376645 L29.1985643,61.334666 L34.8574373,61.334666 L35.617465,55.3376645 C35.6868008,54.7726137 36.1108163,54.3141762 36.6681699,54.1995669 C39.4549381,53.6185241 42.0737003,52.5284025 44.4524536,50.9638514 C44.6711283,50.8199234 44.9244708,50.7426287 45.1858137,50.7426287 C45.4818245,50.7426287 45.769835,50.841246 46.0045102,51.0224888 L50.7913513,54.7406297 L54.7914971,50.7426287 L51.0686947,45.9450275 C50.7193487,45.494586 50.6953478,44.8708979 51.0100259,44.3964684 C52.5780831,42.0189905 53.6661227,39.4016325 54.2448105,36.6163585 C54.3594814,36.061969 54.8181647,35.6381809 55.3808519,35.5662169 C55.3808519,35.5662169 61.3304021,34.8065967 61.3304021,34.8065967 L61.3304021,29.1614193 L55.3275166,28.4017991 C54.7621627,28.3325004 54.3034793,27.9087123 54.1888085,27.3516575 C53.6074539,24.5663835 52.5194143,21.9490255 50.9540239,19.5715476 C50.636679,19.0944528 50.6633466,18.47343 51.0126927,18.0229885 L54.7328283,13.2253873 L50.7326825,9.22738631 L45.9591752,12.9748459 C45.7245,13.158754 45.431156,13.2600366 45.1351452,13.2600366 C44.8738023,13.2600366 44.6204597,13.182742 44.4017851,13.0388139 C42.0256985,11.4742629 39.4042696,10.3868066 36.6175014,9.80309845 C36.0601478,9.68582375 35.6361323,9.22738631 35.5667964,8.6623355 L34.8174358,2.665334 L29.1692299,2.665334 L28.4092022,8.6623355 C28.3398664,9.22738631 27.9158509,9.68582375 27.3584973,9.80043312 C24.5797293,10.3841413 21.963634,11.4742629 19.5875474,13.0388139 C19.3688728,13.1800766 19.1155302,13.2573713 18.8541873,13.2573713 C18.5608433,13.2573713 18.2701661,13.158754 18.0354908,12.9775112 L13.2486497,9.25937031 L9.24850393,13.2573713 L12.9819733,18.0549725 C13.3313194,18.505414 13.357987,19.1291021 13.0433089,19.6061969 C11.4779185,21.9810095 10.3898789,24.5983675 9.8111911,27.3836415 C9.69652026,27.9406963 9.23783687,28.3644844 8.66981617,28.4337831 L2.66693073,29.182742 L2.66693073,34.8065967 L8.66981617,35.5662169 C9.23517011,35.6355156 9.69385349,36.0593037 9.80852434,36.6163585 C10.3872121,39.4016325 11.4752517,42.0189905 13.0433089,44.3964684 C13.357987,44.8708979 13.3339862,45.494586 12.9846401,45.9450275 L9.26450451,50.7426287 L13.2619835,54.7406297 L18.0621585,51.0198234 C18.2968337,50.841246 18.587511,50.7426287 18.880855,50.7426287 Z" id="Shape"></path>
            <path d="M32.5,51 C26.8469286,51 21.5823571,48.4575714 18.0409286,44.0202143 C18.0065714,43.9911429 17.9748571,43.9594286 17.9537143,43.9277143 C17.922,43.8880714 17.8982143,43.8457857 17.8797143,43.8140714 C15.3399286,40.5448571 14,36.6334286 14,32.5 C14,22.2985714 22.2985714,14 32.5,14 C42.7014286,14 51,22.2985714 51,32.5 C51,36.6360714 49.6574286,40.5501429 47.115,43.822 C47.0938571,43.8616429 47.0700714,43.9012857 47.0489286,43.9277143 C47.0119286,43.9752857 46.9749286,44.0096429 46.9405714,44.0387143 C43.4387857,48.447 38.1636429,51 32.5,51 Z M20.9005,43.2960714 C23.9027857,46.5203571 28.0917143,48.3597857 32.5,48.3597857 C36.9082857,48.3597857 41.0972143,46.523 44.0995,43.2960714 L35.7031429,36.6995 C34.7834286,37.4051429 33.6655,37.7883571 32.5,37.7883571 C31.3345,37.7883571 30.2165714,37.4051429 29.2968571,36.6995 L20.9005,43.2960714 Z M45.7354286,41.2187857 C47.4532857,38.6235 48.3571429,35.6238571 48.3571429,32.5 C48.3571429,24.1855714 42.0275,17.3722857 33.8214286,16.701 L33.8214286,27.3887143 C36.1180714,27.9833571 37.7857143,30.0870714 37.7857143,32.5 C37.7857143,33.2294286 37.6324286,33.9509286 37.3364286,34.6195714 L45.7354286,41.2187857 Z M31.1785714,16.701 C22.9725,17.3749286 16.6428571,24.1855714 16.6428571,32.5 C16.6428571,35.6238571 17.5467143,38.6235 19.2645714,41.2187857 L27.6609286,34.6195714 C27.3675714,33.9509286 27.2142857,33.2294286 27.2142857,32.5 C27.2142857,30.0870714 28.8819286,27.9833571 31.1785714,27.3887143 L31.1785714,16.701 Z M32.5,29.8571429 C31.0437857,29.8571429 29.8571429,31.0437857 29.8571429,32.5 C29.8571429,33.9562143 31.0437857,35.1428571 32.5,35.1428571 C33.9588571,35.1428571 35.1428571,33.9562143 35.1428571,32.5 C35.1428571,31.0437857 33.9588571,29.8571429 32.5,29.8571429 Z" id="Shape"></path>
        </g>
    </g>
</svg>